/vscmnt/brussel_pixiu_data/_data_brussel/112/vsc11236/PredSimResults/SUBJ09mtu3D/weighted-LRposFixed/expIG/worker_04.mot
version=1
nRows=9
nColumns=50
inDegrees=yes
endheader
                time	         pelvis_tilt	         pelvis_list	     pelvis_rotation	           pelvis_tx	           pelvis_ty	           pelvis_tz	       hip_flexion_r	     hip_adduction_r	      hip_rotation_r	        knee_angle_r	       ankle_angle_r	         mtp_angle_r	       hip_flexion_l	     hip_adduction_l	      hip_rotation_l	        knee_angle_l	       ankle_angle_l	         mtp_angle_l	    lumbar_extension	      lumbar_bending	     lumbar_rotation	 ercspn_r/activation	 intobl_r/activation	 extobl_r/activation	    abd_r/activation	    add_r/activation	hamstrings_r/activation	bifemsh_r/activation	glut_max_r/activation	iliopsoas_r/activation	rect_fem_r/activation	  vasti_r/activation	gastroc_r/activation	 soleus_r/activation	tib_ant_r/activation	 ercspn_l/activation	 intobl_l/activation	 extobl_l/activation	    abd_l/activation	    add_l/activation	hamstrings_l/activation	bifemsh_l/activation	glut_max_l/activation	iliopsoas_l/activation	rect_fem_l/activation	  vasti_l/activation	gastroc_l/activation	 soleus_l/activation	tib_ant_l/activation	
          0.00000000	         -7.78228910	         -4.64521073	          7.95874754	          0.00000000	          0.98271708	         -0.01393016	         31.05054529	          1.28003252	         -5.12971219	         -1.87855126	          6.47991679	          0.21582322	        -10.00389449	         -4.77505058	          6.46601652	         -6.10397923	         11.28838916	         26.27713251	         -0.26435254	          2.83623206	         -3.51825845	          0.08970108	          0.13111101	          0.03279693	          0.01218911	          0.07157193	          0.12399928	          0.19935637	          0.00999999	          0.11316773	          0.00999999	          0.00999999	          0.00999999	          0.00999999	          0.26388589	          0.03553586	          0.00999999	          0.00999999	          0.06075122	          0.01530442	          0.02350454	          0.14091924	          0.05939502	          0.48952888	          0.00999999	          0.00999999	          0.35267727	          0.29082683	          0.01526588	
          0.01313471	         -7.88581004	         -4.56092215	          7.95997364	          0.01793143	          0.98042908	         -0.01355566	         31.26971165	          1.37427127	         -4.97572774	         -3.71124702	          6.04360493	          0.21807683	        -10.30574418	         -4.71642920	          6.05364542	         -7.32621903	         10.71522172	         28.21345019	          0.03554004	          3.13785934	         -3.62452461	          0.07359111	          0.10756399	          0.02690673	          0.00999999	          0.12348319	          0.10696559	          0.16355274	          0.07015865	          0.09284325	          0.00999999	          0.00999999	          0.02218398	          0.01485745	          0.27568318	          0.07995209	          0.00999999	          0.00999999	          0.04984054	          0.04479286	          0.01928322	          0.11561069	          0.04872791	          0.50223913	          0.00999999	          0.00999999	          0.32705161	          0.27482771	          0.01252419	
          0.02626941	         -7.96776530	         -4.46975304	          7.91072609	          0.03633414	          0.97840674	         -0.01311418	         31.28253467	          1.45167995	         -4.79423083	         -5.44274874	          5.57039764	          0.20079457	        -10.48006480	         -4.63688349	          5.61741048	         -8.86312521	          9.98865446	         30.22989285	          0.36141664	          3.44285388	         -3.70100828	          0.06190755	          0.08824592	          0.02207439	          0.06166793	          0.10696684	          0.09572741	          0.13417931	          0.11243373	          0.07616897	          0.00999999	          0.00999999	          0.01819982	          0.01218911	          0.32599981	          0.07724429	          0.00999999	          0.00999999	          0.04088937	          0.03674824	          0.02218222	          0.09484747	          0.03997657	          0.48865432	          0.00999999	          0.01730727	          0.29875481	          0.25514387	          0.01027489	
          0.03940412	         -8.03141673	         -4.36744157	          7.81225325	          0.05489083	          0.97691446	         -0.01257698	         31.10845007	          1.53535522	         -4.64377469	         -6.85619853	          4.94592115	          0.17742484	        -10.43183961	         -4.52814282	          5.16837783	        -10.82631924	          9.04114183	         32.32101419	          0.68028158	          3.74298429	         -3.74393322	          0.07110761	          0.07239730	          0.01810992	          0.11846542	          0.12789473	          0.08145147	          0.11008123	          0.16124149	          0.06248932	          0.00999999	          0.00999999	          0.01493120	          0.00999999	          0.35941187	          0.10378288	          0.00999999	          0.00999999	          0.03354580	          0.04467195	          0.02042469	          0.07781323	          0.03279693	          0.47133043	          0.00999999	          0.01485744	          0.24807784	          0.21352038	          0.00999999	
          0.05253883	         -8.07587045	         -4.25933031	          7.66827444	          0.07332370	          0.97613009	         -0.01195596	         30.84119735	          1.63329894	         -4.51782930	         -8.15901818	          4.47521296	          0.14732840	        -10.08010920	         -4.39199843	          4.70773468	        -13.32365800	          7.86550212	         34.37018538	          0.96679032	          4.04638044	         -3.75035224	          0.06785661	          0.05939502	          0.01485745	          0.15412351	          0.14379072	          0.06740609	          0.09031108	          0.19248763	          0.05126648	          0.00999999	          0.00999999	          0.01224962	          0.00999999	          0.37912504	          0.13324775	          0.00999999	          0.00999999	          0.02752111	          0.05872540	          0.01993975	          0.06383828	          0.02690673	          0.43404561	          0.00999999	          0.01218911	          0.20352403	          0.17517296	          0.00999999	
          0.06567353	         -8.09963898	         -4.14742855	          7.48108955	          0.09143238	          0.97610645	         -0.01126953	         30.52984445	          1.74255991	         -4.39856646	         -9.42606422	          4.20424751	          0.12784475	         -9.38047184	         -4.23155054	          4.23025994	        -16.40424029	          6.46969554	         36.17190922	          1.20424628	          4.35603818	         -3.71845705	          0.06723638	          0.04872791	          0.01218911	          0.16831477	          0.12958319	          0.06050763	          0.07409156	          0.20087092	          0.04205922	          0.00999999	          0.07552663	          0.01004964	          0.00999999	          0.38575612	          0.15051210	          0.00999999	          0.00999999	          0.02257842	          0.08237736	          0.02740332	          0.05237318	          0.02207439	          0.37314340	          0.00999999	          0.00999999	          0.16697191	          0.14371258	          0.00999999	
          0.07880824	         -8.10333095	         -4.02189729	          7.25344509	          0.10910803	          0.97686897	         -0.01055800	         30.12955515	          1.85408472	         -4.26143331	        -10.54225559	          4.04489011	          0.10923512	         -8.33315261	         -4.04297729	          3.72642214	        -20.03865654	          4.91718384	         37.30836374	          1.38533703	          4.66263238	         -3.64781584	          0.05516099	          0.03997657	          0.00999999	          0.16489980	          0.10631056	          0.05349123	          0.06078501	          0.18741636	          0.03450555	          0.00999999	          0.14787430	          0.00999999	          0.00999999	          0.38483964	          0.16088657	          0.00999999	          0.00999999	          0.01852343	          0.09610171	          0.02506614	          0.04714538	          0.01810991	          0.30612830	          0.00999999	          0.00999999	          0.13698441	          0.11790236	          0.00999999	
          0.09194295	         -8.08860130	         -3.87020812	          6.98672680	          0.12633120	          0.97840558	         -0.00985153	         29.58033259	          1.95856479	         -4.08226354	        -11.40352421	          4.01804363	          0.09543979	         -6.97750160	         -3.82594000	          3.19307453	        -24.12760691	          3.24043517	         37.43242026	          1.51068807	          4.95153149	         -3.53890570	          0.04525429	          0.03279693	          0.00999999	          0.15690226	          0.08721760	          0.05110039	          0.04986826	          0.16716272	          0.02830849	          0.00999999	          0.19205168	          0.00999999	          0.00999999	          0.37450680	          0.16592208	          0.00999999	          0.00999999	          0.01519669	          0.10581666	          0.02056436	          0.06404867	          0.01485744	          0.25114886	          0.00999999	          0.00999999	          0.11238255	          0.09672756	          0.00999999	
          0.10507766	         -8.05765324	         -3.68051071	          6.68126830	          0.14313039	          0.98063035	         -0.00917360	         28.84840644	          2.04387923	         -3.84529228	        -11.95090789	          4.10819237	          0.08812295	         -5.37438802	         -3.57823492	          2.65199357	        -28.50396413	          1.32044453	         36.57949701	          1.58572645	          5.20841799	         -3.39183669	          0.03712680	          0.02690673	          0.00999999	          0.15018103	          0.07155366	          0.04840791	          0.04091211	          0.14658764	          0.02322439	          0.00999999	          0.20978828	          0.00999999	          0.00999999	          0.35987119	          0.16466579	          0.00999999	          0.00999999	          0.01246743	          0.11542654	          0.01687108	          0.07485363	          0.01218911	          0.20604351	          0.00999999	          0.00999999	          0.09219908	          0.07935567	          0.02510233	
